<?xml version="1.0" encoding="utf-8"?>
<!-- Generator: Adobe Illustrator 27.4.0, SVG Export Plug-In . SVG Version: 6.00 Build 0)  -->
<svg version="1.1" id="레이어_1" xmlns="http://www.w3.org/2000/svg" xmlns:xlink="http://www.w3.org/1999/xlink" x="0px"
	 y="0px" viewBox="0 0 16 16" style="enable-background:new 0 0 16 16;" xml:space="preserve">
<style type="text/css">
	.st0{fill:#4346FF;}
</style>
<path class="st0" d="M2,0C0.9,0,0,0.9,0,2v12c0,1.1,0.9,2,2,2h12c1.1,0,2-0.9,2-2V2c0-1.1-0.9-2-2-2H2z M8.5,4.5v3h3
	C11.8,7.5,12,7.7,12,8c0,0.3-0.2,0.5-0.5,0.5h-3v3C8.5,11.8,8.3,12,8,12c-0.3,0-0.5-0.2-0.5-0.5v-3h-3C4.2,8.5,4,8.3,4,8
	c0-0.3,0.2-0.5,0.5-0.5h3v-3C7.5,4.2,7.7,4,8,4C8.3,4,8.5,4.2,8.5,4.5z"/>
</svg>
